<?xml version="1.0" encoding="utf-8"?>
<!-- Generator: Adobe Illustrator 19.0.0, SVG Export Plug-In . SVG Version: 6.00 Build 0)  -->
<svg version="1.2" baseProfile="tiny" id="圖層_1"
	 xmlns="http://www.w3.org/2000/svg" xmlns:xlink="http://www.w3.org/1999/xlink" x="0px" y="0px" width="88.9px" height="154.8px"
	 viewBox="0 0 88.9 154.8" xml:space="preserve">
<path id="XMLID_1_" fill="none" stroke="#000000" stroke-width="3" stroke-miterlimit="10" d="M44.7,2.3c0.7,3.9,1.5,7.8,2.4,11.6
	c2.3,9.2,5.4,18.1,9.2,26.7c2.4,5.3,5.1,10.4,8.1,15.4c3.2,5.5,6.5,11,9.7,16.5c3.3,5.6,6.3,11.2,8.7,17.2
	c2.1,5.3,3.6,10.8,4.2,16.5c0.7,7.1,0.3,14.1-2,20.9c-2.3,6.9-6.5,12.5-12.2,16.9c-6.1,4.6-13,7.3-20.5,8.6
	c-2.4,0.4-4.9,0.7-7.4,0.7c-10.2-0.1-19.7-2.7-28.1-8.7C8.7,138.7,4,130.7,2.2,120.8c-0.7-4.1-0.9-8.3-0.6-12.5
	c0.4-6.7,2.1-13,4.6-19.2c3-7.4,7-14.3,11.1-21.2c1.9-3.2,3.9-6.5,5.8-9.7c2.5-4.2,5-8.5,7.2-12.9c4.7-9.6,8.4-19.5,11.1-29.9
	c1.1-4.3,2.1-8.5,2.8-12.9c0-0.1,0.1-0.2,0.1-0.3c0.2-0.2,0-0.5,0.2-0.6C44.7,1.8,44.5,2.1,44.7,2.3z"/>
<g id="XMLID_56_">
</g>
<g id="XMLID_57_">
</g>
<g id="XMLID_58_">
</g>
<g id="XMLID_59_">
</g>
<g id="XMLID_60_">
</g>
<g id="XMLID_61_">
</g>
<g id="XMLID_62_">
</g>
<g id="XMLID_63_">
</g>
<g id="XMLID_64_">
</g>
<g id="XMLID_65_">
</g>
<g id="XMLID_66_">
</g>
<g id="XMLID_67_">
</g>
<g id="XMLID_68_">
</g>
<g id="XMLID_69_">
</g>
<g id="XMLID_70_">
</g>
</svg>
